<?xml version="1.0" encoding="utf-8"?>
<!-- Generator: Adobe Illustrator 24.0.2, SVG Export Plug-In . SVG Version: 6.00 Build 0)  -->
<svg version="1.1" id="Layer_1" xmlns="http://www.w3.org/2000/svg" xmlns:xlink="http://www.w3.org/1999/xlink" x="0px" y="0px"
	 viewBox="0 0 269.9 49.7" style="enable-background:new 0 0 269.9 49.7;" xml:space="preserve">
<style type="text/css">
	.st0{fill-rule:evenodd;clip-rule:evenodd;fill:#FFFFFF;}
	.st1{fill:#FFFFFF;}
	.st2{fill:#F65B07;}
	.st3{fill:#0777F6;}
</style>
<g id="Loading-screen-_1_">
	<g id="Group-2_1_">
		<path class="st0" d="M159.7,38.9c0.3-0.5,0.5-1,0.5-1.6s-0.1-1.2-0.5-1.6c-0.3-0.4-0.8-0.6-1.3-0.6s-1,0.2-1.3,0.5
			c-0.3,0.5-0.5,1.1-0.5,1.6c0,0.6,0.1,1.2,0.5,1.6c0.3,0.4,0.8,0.6,1.3,0.6C158.8,39.5,159.3,39.3,159.7,38.9 M159.7,34.8
			c0.4,0.2,0.7,0.6,0.8,1c0.2,0.5,0.3,1,0.3,1.5s-0.1,1-0.3,1.5c-0.2,0.4-0.5,0.7-0.8,1c-0.4,0.2-0.8,0.3-1.3,0.3
			c-0.4,0-0.8-0.1-1.1-0.3s-0.6-0.5-0.7-0.8v2.8c0,0.1,0,0.2-0.1,0.3c0,0.1-0.1,0.1-0.3,0.1c-0.1,0-0.2,0-0.3-0.1s-0.1-0.2-0.1-0.3
			v-6.9c0-0.1,0-0.2,0.1-0.3s0.1-0.1,0.3-0.1c0.1,0,0.2,0,0.3,0.1s0.1,0.2,0.1,0.3v0.8c0.2-0.3,0.4-0.6,0.7-0.8s0.7-0.3,1.1-0.3
			C158.8,34.5,159.3,34.6,159.7,34.8"/>
		<path id="Fill-3_1_" class="st0" d="M166,38.9c0.3-0.5,0.5-1.1,0.5-1.6c0-0.6-0.1-1.2-0.5-1.6c-0.3-0.4-0.8-0.6-1.3-0.6
			s-1,0.2-1.3,0.6c-0.3,0.5-0.5,1.1-0.5,1.6c0,0.6,0.1,1.2,0.5,1.6c0.3,0.4,0.8,0.6,1.3,0.6C165.2,39.5,165.6,39.3,166,38.9
			 M163.3,39.7c-0.4-0.2-0.7-0.6-0.9-1c-0.2-0.5-0.3-1-0.3-1.5s0.1-1,0.3-1.5c0.2-0.4,0.5-0.7,0.9-1c0.8-0.4,1.8-0.4,2.6,0
			c0.4,0.2,0.7,0.6,0.9,1c0.2,0.5,0.3,1,0.3,1.5s-0.1,1-0.3,1.5c-0.2,0.4-0.5,0.7-0.9,1c-0.4,0.2-0.8,0.3-1.3,0.3
			C164.2,40.1,163.7,40,163.3,39.7"/>
		<path id="Fill-5_1_" class="st0" d="M176.5,34.5c0.1,0,0.2,0,0.3,0.1c0.1,0,0.1,0.1,0.1,0.2v0.1l-1.9,4.9c0,0.1-0.1,0.2-0.2,0.2
			c-0.1,0-0.1,0.1-0.2,0.1c-0.1,0-0.2,0-0.2-0.1c-0.1,0-0.1-0.1-0.2-0.2l-1.6-4.3l-1.6,4.3c0,0.1-0.1,0.2-0.2,0.2
			c-0.1,0-0.1,0.1-0.2,0.1c-0.1,0-0.2,0-0.2-0.1c-0.1,0-0.1-0.1-0.2-0.2l-1.9-4.8v-0.1c0-0.1,0.1-0.2,0.1-0.3
			c0.1-0.1,0.2-0.1,0.3-0.1s0.3,0.1,0.3,0.2l1.6,4.4l1.7-4.4c0-0.1,0.1-0.1,0.1-0.2c0-0.1,0.1-0.1,0.2-0.1s0.1,0,0.2,0.1
			c0.1,0,0.1,0.1,0.1,0.2l1.7,4.4l1.6-4.4C176.2,34.6,176.3,34.5,176.5,34.5"/>
		<path id="Fill-7_1_" class="st0" d="M179.2,35.5c-0.3,0.4-0.5,0.9-0.5,1.4h3.5c0-0.5-0.1-1-0.5-1.4c-0.3-0.3-0.7-0.5-1.2-0.5
			S179.5,35.2,179.2,35.5 M182.6,38.9c0.1,0.1,0.1,0.1,0.1,0.2c0,0.2-0.1,0.3-0.4,0.5c-0.5,0.3-1.1,0.5-1.7,0.5
			c-0.7,0-1.4-0.2-1.9-0.8s-0.8-1.3-0.7-2.1c0-0.5,0.1-1,0.3-1.5c0.2-0.4,0.5-0.8,0.9-1s0.8-0.4,1.3-0.3c0.6,0,1.2,0.2,1.6,0.7
			c0.4,0.5,0.6,1.2,0.6,1.9c0,0.1,0,0.2-0.1,0.3c0,0.1-0.2,0.1-0.3,0.1h-3.7c0,0.6,0.2,1.1,0.5,1.6c0.4,0.4,0.9,0.6,1.4,0.5
			c0.3,0,0.5,0,0.8-0.1c0.2-0.1,0.5-0.2,0.7-0.3c0.1-0.1,0.2-0.1,0.3-0.2C182.5,38.8,182.5,38.9,182.6,38.9"/>
		<path id="Fill-9_1_" class="st0" d="M187.1,34.6c0.1,0.1,0.1,0.1,0.1,0.2c0,0.2-0.1,0.3-0.3,0.3l0,0h-0.3c-0.5,0-0.9,0.2-1.2,0.6
			c-0.2,0.3-0.4,0.7-0.4,1.1v2.9c0,0.2-0.1,0.3-0.3,0.3h-0.1c-0.1,0-0.2,0-0.3-0.1c-0.1,0-0.1-0.1-0.1-0.3v-4.9c0-0.1,0-0.2,0.1-0.3
			s0.2-0.1,0.3-0.1s0.2,0,0.3,0.1s0.1,0.2,0.1,0.3v0.7c0.3-0.6,1-1.1,1.7-1.1h0.2C187,34.5,187.1,34.5,187.1,34.6"/>
		<path id="Fill-11_1_" class="st0" d="M189.2,35.5c-0.3,0.4-0.5,0.9-0.5,1.4h3.5c0-0.5-0.1-1-0.5-1.4c-0.3-0.3-0.7-0.5-1.2-0.5
			S189.5,35.2,189.2,35.5 M192.6,38.9c0.1,0.1,0.1,0.1,0.1,0.2c0,0.2-0.1,0.3-0.4,0.5c-0.5,0.3-1.1,0.5-1.7,0.5
			c-0.7,0-1.4-0.2-1.9-0.8s-0.8-1.3-0.7-2.1c0-0.5,0.1-1,0.3-1.5c0.2-0.4,0.5-0.8,0.9-1s0.8-0.4,1.3-0.3c0.6,0,1.2,0.2,1.6,0.7
			c0.4,0.5,0.6,1.2,0.6,1.9c0,0.1,0,0.2-0.1,0.3c0,0.1-0.2,0.1-0.3,0.1h-3.7c0,0.6,0.2,1.1,0.5,1.6c0.4,0.4,0.9,0.6,1.4,0.5
			c0.3,0,0.5,0,0.8-0.1c0.2-0.1,0.5-0.2,0.7-0.3c0.1-0.1,0.2-0.1,0.3-0.2C192.5,38.9,192.5,38.9,192.6,38.9"/>
		<path id="Fill-13_1_" class="st0" d="M197.8,38.9c0.3-0.5,0.5-1.1,0.5-1.6c0-0.6-0.1-1.2-0.5-1.6c-0.3-0.4-0.8-0.6-1.3-0.6
			s-1,0.2-1.3,0.6c-0.3,0.5-0.5,1.1-0.5,1.6c0,0.6,0.1,1.2,0.5,1.6c0.3,0.4,0.8,0.6,1.3,0.6C197,39.5,197.5,39.3,197.8,38.9
			 M198.9,32.2c0.1,0.1,0.1,0.1,0.1,0.3v7.3c0,0.1,0,0.2-0.1,0.3s-0.1,0.1-0.3,0.1s-0.3-0.1-0.3-0.3v-0.1V39
			c-0.2,0.3-0.4,0.6-0.7,0.8s-0.7,0.3-1.1,0.3c-0.4,0-0.9-0.1-1.3-0.3c-0.4-0.2-0.7-0.6-0.8-1c-0.2-0.5-0.3-1-0.3-1.5s0.1-1,0.3-1.5
			c0.2-0.4,0.5-0.7,0.8-1c0.4-0.2,0.8-0.3,1.3-0.3c0.4,0,0.8,0.1,1.1,0.3s0.6,0.5,0.7,0.8v-3.2c0-0.1,0-0.2,0.1-0.3
			c0-0.1,0.1-0.1,0.3-0.1S198.8,32.1,198.9,32.2"/>
		<path id="Fill-15_1_" class="st0" d="M207.8,38.9c0.4-0.5,0.5-1.1,0.5-1.6c0-0.6-0.1-1.2-0.5-1.6c-0.3-0.4-0.8-0.6-1.3-0.6
			s-1,0.2-1.3,0.6c-0.3,0.5-0.5,1.1-0.5,1.6c0,0.6,0.1,1.2,0.5,1.6c0.3,0.4,0.8,0.6,1.3,0.6C206.9,39.5,207.4,39.3,207.8,38.9
			 M207.8,34.8c0.4,0.2,0.7,0.6,0.8,1c0.2,0.5,0.3,1,0.3,1.5s-0.1,1-0.3,1.5c-0.2,0.4-0.5,0.8-0.8,1c-0.4,0.2-0.8,0.4-1.3,0.3
			c-0.4,0-0.8-0.1-1.1-0.3s-0.6-0.5-0.7-0.8v0.8c0,0.1,0,0.2-0.1,0.3c0,0.1-0.1,0.1-0.3,0.1c-0.1,0-0.2,0-0.3-0.1s-0.1-0.1-0.1-0.3
			v-7.2c0-0.1,0-0.2,0.1-0.3s0.1-0.1,0.3-0.1s0.3,0.1,0.3,0.3v0.1v3.2c0.2-0.3,0.4-0.6,0.7-0.8s0.7-0.3,1.1-0.3
			C207,34.5,207.4,34.6,207.8,34.8"/>
		<path id="Fill-17_1_" class="st0" d="M214.8,34.5c0.2,0,0.3,0.1,0.3,0.3l0,0v0.1l-3.2,6.9c0,0.1-0.2,0.2-0.3,0.2s-0.2,0-0.2-0.1
			c-0.1,0-0.1-0.1-0.1-0.2v-0.1l0.8-1.7l-2.3-5v-0.1c0-0.1,0-0.2,0.1-0.2c0.1-0.1,0.2-0.1,0.3-0.1s0.3,0.1,0.3,0.2l2,4.5l2-4.5
			C214.6,34.6,214.7,34.5,214.8,34.5"/>
		<path class="st1" d="M224.8,32.8c-0.2,0-0.4,0-0.6-0.1l-4.3-2.1c-0.4-0.2-0.7-0.7-0.7-1.1v-4.9c0-0.5,0.3-0.9,0.7-1.1l4.3-2.1
			c0.4-0.2,0.8-0.2,1.1,0l4.3,2.1c0.4,0.2,0.7,0.7,0.7,1.1v4.9c0,0.5-0.3,0.9-0.7,1.1l-4.3,2.1C225.2,32.8,225,32.8,224.8,32.8z
			 M222,28.7l2.6,1.3c0.1,0,0.3,0,0.4,0l2.6-1.3c0.1-0.1,0.2-0.2,0.3-0.4v-2.8c0-0.2-0.1-0.3-0.2-0.4l-2.6-1.3c-0.1,0-0.3,0-0.4,0
			l-2.6,1.3c-0.1,0.1-0.2,0.2-0.3,0.4v2.8C221.8,28.5,221.9,28.7,222,28.7L222,28.7z"/>
		<path class="st1" d="M224.8,42.1c-0.2,0-0.4,0-0.6-0.1l-4.3-2.1c-0.4-0.2-0.7-0.7-0.7-1.1v-5c0-0.5,0.3-0.9,0.7-1.1l4.3-2.1
			c0.4-0.2,0.8-0.2,1.1,0l4.3,2.1c0.4,0.2,0.7,0.7,0.7,1.1v4.9c0,0.5-0.3,0.9-0.7,1.1l-4.3,2.1C225.2,42,225,42,224.8,42.1z
			 M224.6,33.2l-2.5,1.3c-0.2,0.1-0.3,0.3-0.3,0.5v2.7c0,0.2,0.1,0.4,0.3,0.5l2.5,1.3c0.1,0.1,0.3,0.1,0.5,0l2.5-1.3
			c0.2-0.1,0.3-0.3,0.3-0.5V35c0-0.2-0.1-0.4-0.3-0.5l-2.5-1.3C224.9,33.1,224.7,33.1,224.6,33.2z"/>
		<path class="st1" d="M236.8,31.1h0.8l1.2,3l1.2-3h0.8l-1.5,3.6l1.6,3.8L244,31h0.9l-3.6,8.5h-0.8l-1.8-4.2l-1.8,4.2h-0.7l-3.6-8.5
			h0.9l3.1,7.5l1.6-3.8L236.8,31.1z"/>
		<path class="st1" d="M248.7,31.1h0.7l3.5,8.5H252l-1.1-2.7h-3.8l-1.1,2.7h-0.9L248.7,31.1z M250.8,36.2l-1.7-4.2l-1.7,4.2H250.8z"
			/>
		<path class="st1" d="M255.6,39.6v-8.5h0.8v7.7h4.9v0.8H255.6z"/>
		<path class="st1" d="M263.7,39.6v-8.5h0.8v7.7h4.9v0.8H263.7z"/>
		<path id="path37_1_" class="st1" d="M236.2,24.5h-1.4v3.7H234v-3.7h-1.4v-0.7h3.7L236.2,24.5z M240.7,23.8v4.4h-0.8v-1.9h-2v1.9
			H237v-4.4h0.8v1.8h2v-1.8H240.7z"/>
	</g>
</g>
<path class="st2" d="M36.1,34L36.1,34c0-5.3,3.9-8,9.8-8c2.3,0,4.6,0.5,6,1v-0.4c0-2.6-1.6-4.1-5-4.1c-2.6,0-4.7,0.5-6.9,1.4
	l-1.8-6.3c2.8-1.2,5.8-2,10.2-2c4.5,0,7.6,1.1,9.6,3.1c1.9,1.9,2.7,4.5,2.7,8v14.5H52v-2.6c-1.7,1.9-4.1,3.2-7.4,3.2
	C39.8,41.8,36.1,39,36.1,34z M52.1,32.1v-1.2c-0.9-0.4-2.1-0.7-3.4-0.7c-2.6,0-4,1.3-4,3.1v0.1c0,1.7,1.3,2.8,3.1,2.8
	C50.3,36.2,52.1,34.6,52.1,32.1z"/>
<path class="st2" d="M63,7.1h8.8v34.1H63V7.1z"/>
<path class="st2" d="M74.4,7.1h8.8v17.3l6.8-8.5h10L91.3,26l9,15.1h-9.7l-5.1-8.6l-2.3,2.7v5.9h-8.8C74.4,41.1,74.4,7.1,74.4,7.1z"
	/>
<path class="st3" d="M98.4,34L98.4,34c0-5.3,3.9-8,9.8-8c2.3,0,4.6,0.5,6,1v-0.4c0-2.6-1.6-4.1-5-4.1c-2.6,0-4.7,0.5-6.9,1.4
	l-1.8-6.3c2.8-1.2,5.8-2,10.2-2c4.5,0,7.6,1.1,9.6,3.1c1.9,1.9,2.7,4.5,2.7,8v14.5h-8.7v-2.6c-1.7,1.9-4.1,3.2-7.4,3.2
	C102,41.8,98.4,39,98.4,34z M114.3,32.1v-1.2c-0.9-0.4-2.1-0.7-3.4-0.7c-2.6,0-4,1.3-4,3.1v0.1c0,1.7,1.3,2.8,3.1,2.8
	C112.5,36.2,114.3,34.6,114.3,32.1z"/>
<path class="st3" d="M125.1,15.9h8.8V21c1.4-3.5,3.8-5.7,7.9-5.5v9.3h-0.7c-4.6,0-7.2,2.7-7.2,8.5v7.8h-8.8
	C125.1,41.1,125.1,15.9,125.1,15.9z"/>
<g>
	<path class="st3" d="M144.3,11.2v-0.7h2.5v0.7H146v2.4h-0.8v-2.4H144.3z M150.4,11.5l-0.7,2.1h-0.8l-0.7-2.1l0,0v2.1h-0.8v-3.1h1.3
		l0.6,1.9l0,0l0.6-1.9h1.3v3.1h-0.8L150.4,11.5L150.4,11.5z"/>
</g>
<path class="st2" d="M28.7,31.6V18l20.4-6.1l-20.4,1.5V9.5l0,0V6.8c0-2.4-2-4.4-4.4-4.4s-4.4,2-4.4,4.4v2.8v4.2L0.4,8l19.5,10.7
	v14.7c0,6,3.2,8.4,8.4,8.4c2.5,0,4.5-0.6,6.1-1.4v-7c-1.1,0.5-2.2,0.8-3.3,0.8C29.5,34.2,28.7,33.4,28.7,31.6z"/>
<polygon class="st3" points="11.5,47.3 138.2,47.3 156.9,30 136.4,30 136.4,30.5 154.4,30.5 136.8,46.7 11.5,46.7 "/>
</svg>
